<?xml version="1.0" standalone="no"?>
<!DOCTYPE svg PUBLIC "-//W3C//DTD SVG 20010904//EN"
 "http://www.w3.org/TR/2001/REC-SVG-20010904/DTD/svg10.dtd">
<svg version="1.0" xmlns="http://www.w3.org/2000/svg"
 width="183.000000pt" height="183.000000pt" viewBox="0 0 183.000000 183.000000"
 preserveAspectRatio="xMidYMid meet">

<g transform="translate(0.000000,183.000000) scale(0.100000,-0.100000)"
fill="#000000" stroke="none">
<path d="M990 1678 c-11 -18 -20 -36 -20 -40 0 -5 -5 -8 -11 -8 -6 0 -9 9 -6
20 4 17 3 18 -16 8 -37 -19 -113 -104 -134 -150 -20 -41 -22 -68 -3 -38 11 17
11 16 39 -35 l22 -40 -5 47 c-3 27 -8 60 -11 75 -3 16 4 2 16 -30 11 -31 25
-55 29 -52 10 6 8 -6 -8 -70 -5 -22 -13 -56 -16 -75 l-6 -34 35 34 c37 36 127
158 107 146 -16 -9 -15 9 2 57 12 33 20 217 9 217 -2 0 -12 -15 -23 -32z m-48
-89 c-7 -11 -11 -23 -8 -27 2 -4 -2 -12 -9 -19 -10 -9 -14 -7 -19 10 -3 12 -6
31 -6 42 1 20 1 20 15 1 15 -20 19 -16 15 19 -1 16 1 18 11 7 11 -10 11 -16 1
-33z m-46 -64 c3 -18 1 -41 -4 -51 -8 -14 -11 -5 -13 38 -4 60 6 69 17 13z
m15 -58 c-10 -9 -11 -8 -5 6 3 10 9 15 12 12 3 -3 0 -11 -7 -18z"/>
<path d="M546 1608 c-57 -121 -70 -224 -37 -300 22 -52 99 -139 149 -169 20
-12 53 -36 72 -53 l35 -31 -29 32 c-29 32 -29 32 -16 93 14 67 8 159 -12 172
-8 4 -8 8 -2 8 12 0 15 22 7 64 -3 18 -8 24 -13 16 -5 -8 -9 -5 -13 9 -3 12
-1 19 4 15 32 -20 -12 65 -83 157 l-34 46 -28 -59z m51 -150 c-3 -8 -6 -5 -6
6 -1 11 2 17 5 13 3 -3 4 -12 1 -19z m79 -295 c-5 -6 -26 45 -46 111 -32 107
-22 102 15 -9 18 -55 32 -101 31 -102z m31 145 c-3 -8 -6 -5 -6 6 -1 11 2 17
5 13 3 -3 4 -12 1 -19z"/>
<path d="M1170 1475 c-14 -8 -20 -14 -15 -14 6 0 21 6 35 14 14 8 21 14 15 14
-5 0 -21 -6 -35 -14z"/>
<path d="M1304 1442 c-76 -60 -111 -92 -97 -92 5 0 18 9 29 21 11 13 27 19 40
16 16 -3 21 0 17 10 -5 12 8 18 30 14 5 -1 6 3 2 8 -3 6 7 17 23 25 31 16 50
46 29 46 -7 0 -39 -22 -73 -48z"/>
<path d="M800 1420 c0 -20 -2 -22 -10 -10 -6 10 -8 -2 -6 -40 2 -30 4 -63 5
-73 1 -11 6 -15 13 -11 7 5 8 3 3 -5 -4 -7 1 -31 11 -54 29 -68 32 -70 63 -34
40 47 69 91 81 123 l11 28 -23 -19 c-58 -48 -88 -80 -88 -92 0 -7 -4 -13 -9
-13 -5 0 -3 30 5 68 13 71 24 139 17 110 -7 -30 -22 -23 -58 27 -14 19 -14 19
-15 -5z m35 -116 l6 -29 -14 30 c-8 17 -17 44 -20 60 l-6 30 14 -31 c8 -17 17
-44 20 -60z"/>
<path d="M240 1381 c10 -16 17 -31 13 -35 -3 -3 -1 -6 5 -6 7 0 12 -5 12 -11
0 -6 10 -19 23 -29 l22 -19 -35 6 c-42 6 -49 11 -31 22 11 7 9 11 -8 21 -22
11 -22 11 -15 -37 9 -65 39 -142 68 -178 22 -27 24 -28 19 -7 -5 22 -4 23 41
18 57 -7 53 7 -6 23 -64 16 -84 34 -30 27 53 -8 48 5 -8 24 -55 18 -60 30 -11
27 23 -1 41 -6 41 -11 0 -5 3 -6 6 -3 4 4 1 15 -7 24 -11 15 -9 14 9 -1 12
-11 21 -25 18 -32 -3 -7 5 -20 17 -31 l22 -18 -20 25 c-11 14 15 -8 58 -48 43
-40 81 -71 85 -69 4 1 22 -12 39 -31 18 -18 27 -31 20 -28 -6 3 -20 9 -29 12
-10 4 -18 10 -18 14 0 7 -98 24 -140 25 -8 0 -19 5 -23 10 -5 6 -7 4 -4 -5 2
-8 8 -15 13 -16 32 -3 83 -17 80 -23 -3 -4 12 -6 32 -4 28 2 32 1 17 -6 -16
-6 -9 -9 30 -13 28 -3 53 -2 56 1 9 8 -46 141 -67 160 -15 15 -16 13 -11 -31
2 -27 3 -48 1 -48 -1 0 -11 27 -21 61 -15 51 -30 73 -89 134 -49 50 -91 84
-133 104 l-61 29 20 -27z m87 -132 c-2 -23 3 -23 -49 -2 l-43 18 30 5 c42 8
64 1 62 -21z"/>
<path d="M1268 1363 c7 -3 16 -2 19 1 4 3 -2 6 -13 5 -11 0 -14 -3 -6 -6z"/>
<path d="M1005 1179 c-4 -6 -5 -12 -2 -15 2 -3 7 2 10 11 7 17 1 20 -8 4z"/>
<path d="M413 1133 c14 -16 15 -22 5 -26 -8 -3 -5 -6 7 -7 l20 -1 -20 -8 c-11
-5 -28 -5 -37 0 -28 15 -45 10 -24 -6 11 -8 34 -15 52 -15 18 0 45 -5 60 -10
15 -6 28 -9 30 -8 1 2 -23 26 -54 53 -31 27 -49 40 -39 28z"/>
<path d="M803 1059 c-6 -6 -10 -28 -8 -48 4 -31 3 -32 -3 -6 l-7 29 -19 -29
c-14 -21 -15 -26 -4 -17 13 10 17 10 22 -4 3 -8 6 -23 6 -32 0 -15 -2 -15 -10
-2 -8 12 -10 10 -10 -8 0 -15 4 -21 12 -16 8 5 9 0 5 -17 -4 -13 -7 -34 -7
-46 0 -14 -6 -23 -15 -23 -8 0 -15 -8 -14 -17 0 -11 3 -13 6 -5 4 10 53 19 53
9 0 -1 -9 -20 -20 -42 -28 -56 -26 -91 9 -126 24 -23 38 -29 75 -29 24 0 47 4
50 9 3 4 -6 6 -19 3 -14 -2 -33 -1 -42 3 -10 5 -22 7 -26 6 -5 -1 -6 3 -3 8 7
10 -11 26 -29 26 -5 0 -11 20 -11 45 -2 44 -2 44 6 10 7 -34 8 -34 5 7 -2 27
1 40 8 36 6 -4 7 -1 2 6 -4 7 1 20 12 30 46 44 93 52 132 25 16 -12 26 -13 33
-6 17 17 -39 35 -90 29 -24 -3 -51 -12 -62 -22 -40 -36 -49 7 -29 136 12 77
10 96 -8 78z"/>
<path d="M85 1011 l-30 -7 50 -26 c62 -32 254 -94 315 -103 l45 -6 -54 51
c-53 49 -62 54 -89 51 -8 -1 -20 3 -28 10 -8 6 -17 9 -21 6 -3 -3 -18 0 -34 9
-16 8 -29 12 -29 9 0 -3 -8 -2 -17 4 -10 5 -26 5 -40 0 -14 -5 -23 -5 -23 1 0
11 -1 11 -45 1z m270 -67 c9 -15 12 -23 6 -20 -11 7 -35 46 -28 46 3 0 12 -12
22 -26z"/>
<path d="M80 943 c2 -29 147 -153 178 -153 14 0 14 2 3 9 -11 7 -7 14 20 30
l34 21 -35 -6 c-19 -3 -44 -7 -56 -9 -33 -7 -37 7 -7 22 27 13 27 13 -15 9
-35 -3 -42 -1 -38 10 3 9 -1 14 -13 14 -29 0 -33 13 -9 26 22 13 22 13 -7 11
-19 -1 -29 2 -27 11 1 6 -5 12 -13 12 -8 0 -15 -3 -15 -7z"/>
<path d="M439 921 c26 -37 61 -59 103 -66 l33 -5 -40 34 c-22 20 -46 33 -52
31 -7 -2 -12 1 -10 8 1 7 -6 11 -15 11 -10 -1 -18 2 -18 7 0 5 -5 9 -11 9 -6
0 -1 -13 10 -29z"/>
<path d="M690 898 c-18 -24 -38 -49 -43 -55 -7 -10 -4 -13 12 -13 12 0 19 4
16 10 -8 13 43 88 63 93 15 4 15 5 1 6 -9 0 -31 -18 -49 -41z"/>
<path d="M761 874 c0 -11 3 -14 6 -6 3 7 2 16 -1 19 -3 4 -6 -2 -5 -13z"/>
<path d="M365 850 c-3 -6 1 -7 9 -4 18 7 21 14 7 14 -6 0 -13 -4 -16 -10z"/>
<path d="M382 833 c-48 -24 -33 -26 29 -3 36 13 46 19 29 19 -14 0 -40 -7 -58
-16z"/>
<path d="M415 814 c-53 -21 -56 -23 -22 -19 21 3 55 14 75 25 50 26 20 23 -53
-6z"/>
<path d="M506 825 c-4 -12 -2 -13 12 -7 9 5 24 12 32 15 9 3 4 6 -11 6 -15 1
-29 -6 -33 -14z"/>
<path d="M318 803 c7 -3 16 -2 19 1 4 3 -2 6 -13 5 -11 0 -14 -3 -6 -6z"/>
<path d="M644 729 c-16 -18 -25 -20 -79 -13 -140 18 -299 -4 -365 -52 -19 -14
-56 -40 -81 -58 l-47 -33 53 -27 c116 -59 233 -72 312 -37 52 24 125 91 165
151 17 25 42 55 57 67 14 13 21 23 15 23 -6 0 -19 -9 -30 -21z m-89 -69 c-3
-5 -12 -10 -18 -10 -7 0 -6 4 3 10 19 12 23 12 15 0z m-80 -30 c-27 -12 -43
-12 -25 0 8 5 22 9 30 9 10 0 8 -3 -5 -9z"/>
<path d="M725 560 c-3 -5 -1 -18 4 -27 9 -16 10 -14 11 10 0 28 -5 34 -15 17z"/>
<path d="M671 486 c-17 -21 -28 -91 -12 -82 7 4 10 15 8 24 -2 10 3 29 10 45
15 29 12 35 -6 13z"/>
<path d="M696 464 c-4 -20 -5 -38 -2 -41 2 -3 8 11 12 31 3 21 4 39 1 42 -2 3
-8 -11 -11 -32z"/>
<path d="M593 453 c-13 -2 -23 -9 -23 -14 0 -13 13 -11 36 6 10 8 17 14 14 13
-3 0 -15 -3 -27 -5z"/>
<path d="M632 430 c0 -14 2 -19 5 -12 2 6 2 18 0 25 -3 6 -5 1 -5 -13z"/>
<path d="M518 423 c7 -3 16 -2 19 1 4 3 -2 6 -13 5 -11 0 -14 -3 -6 -6z"/>
<path d="M680 399 c0 -5 5 -7 10 -4 6 3 10 8 10 11 0 2 -4 4 -10 4 -5 0 -10
-5 -10 -11z"/>
<path d="M518 373 c7 -3 16 -2 19 1 4 3 -2 6 -13 5 -11 0 -14 -3 -6 -6z"/>
<path d="M590 329 c-8 -29 -21 -54 -28 -57 -9 -3 -11 3 -6 22 9 38 -3 32 -22
-11 -16 -37 -17 -38 -24 -13 -5 14 -8 19 -9 11 -1 -8 -8 -23 -18 -33 -21 -23
-7 -23 59 2 47 18 128 69 86 54 -14 -5 -17 2 -20 36 l-3 42 -15 -53z"/>
<path d="M480 347 c-15 -7 -39 -25 -55 -40 -17 -16 -40 -33 -52 -38 -13 -4
-23 -13 -23 -19 0 -7 7 -7 23 1 24 13 137 100 137 105 0 5 1 5 -30 -9z"/>
<path d="M1131 264 c0 -11 3 -14 6 -6 3 7 2 16 -1 19 -3 4 -6 -2 -5 -13z"/>
<path d="M450 247 c0 -8 -10 -18 -22 -20 l-23 -4 23 -2 c22 -1 41 23 28 36 -3
4 -6 -1 -6 -10z"/>
<path d="M1131 213 c0 -4 4 -17 9 -28 8 -19 9 -19 9 2 1 12 -3 25 -9 28 -5 3
-10 3 -9 -2z"/>
<path d="M1141 124 c0 -11 3 -14 6 -6 3 7 2 16 -1 19 -3 4 -6 -2 -5 -13z"/>
</g>
</svg>
